<mxfile host="65bd71144e">
    <diagram id="9TPBu3UZcclgOXKEm6nQ" name="Arquitetura em Camadas">
        <mxGraphModel dx="871" dy="619" grid="1" gridSize="10" guides="1" tooltips="1" connect="1" arrows="1" fold="1" page="1" pageScale="1" pageWidth="850" pageHeight="1100" math="0" shadow="0">
            <root>
                <mxCell id="0"/>
                <mxCell id="1" parent="0"/>
                <mxCell id="2" value="ecommerce-web-app (front-end)" style="verticalAlign=top;align=left;spacingTop=8;spacingLeft=2;spacingRight=12;shape=cube;size=10;direction=south;fontStyle=4;html=1;strokeWidth=2;" vertex="1" parent="1">
                    <mxGeometry x="160" y="40" width="680" height="160" as="geometry"/>
                </mxCell>
                <mxCell id="3" value="ecommerce-node-api (back-end)" style="verticalAlign=top;align=left;spacingTop=8;spacingLeft=2;spacingRight=12;shape=cube;size=10;direction=south;fontStyle=4;html=1;strokeWidth=2;" vertex="1" parent="1">
                    <mxGeometry x="160" y="280" width="680" height="560" as="geometry"/>
                </mxCell>
                <mxCell id="4" value="" style="shape=cylinder3;whiteSpace=wrap;html=1;boundedLbl=1;backgroundOutline=1;size=15;strokeWidth=2;" vertex="1" parent="1">
                    <mxGeometry x="370" y="960" width="280" height="120" as="geometry"/>
                </mxCell>
                <mxCell id="7" value="&lt;font style=&quot;font-size: 14px;&quot;&gt;Database (Relacional)&lt;/font&gt;" style="text;html=1;strokeColor=none;fillColor=none;align=center;verticalAlign=middle;whiteSpace=wrap;rounded=0;strokeWidth=2;" vertex="1" parent="1">
                    <mxGeometry x="370" y="990" width="280" height="90" as="geometry"/>
                </mxCell>
                <mxCell id="8" value="" style="rounded=1;whiteSpace=wrap;html=1;strokeWidth=2;fontSize=14;fillColor=#FA2D3A;fontColor=#ffffff;strokeColor=#FFFFFF;" vertex="1" parent="1">
                    <mxGeometry x="320" y="520" width="480" height="80" as="geometry"/>
                </mxCell>
                <mxCell id="9" value="&lt;font color=&quot;#000000&quot;&gt;Camada de Domínio&lt;/font&gt;" style="text;html=1;align=center;verticalAlign=middle;whiteSpace=wrap;rounded=0;strokeWidth=2;fontSize=14;" vertex="1" parent="1">
                    <mxGeometry x="330" y="525" width="140" height="30" as="geometry"/>
                </mxCell>
                <mxCell id="19" style="edgeStyle=none;html=1;fontSize=14;fontColor=#000000;entryX=0.271;entryY=-0.026;entryDx=0;entryDy=0;endArrow=classic;endFill=1;dashed=1;entryPerimeter=0;" edge="1" parent="1" source="10" target="8">
                    <mxGeometry relative="1" as="geometry"/>
                </mxCell>
                <mxCell id="10" value="" style="rounded=1;whiteSpace=wrap;html=1;strokeWidth=2;fontSize=14;fillColor=#FFFF00;fontColor=#ffffff;strokeColor=#FFFFFF;" vertex="1" parent="1">
                    <mxGeometry x="200" y="360" width="600" height="120" as="geometry"/>
                </mxCell>
                <mxCell id="11" value="&lt;font color=&quot;#000000&quot;&gt;Camada de Aplicação&lt;/font&gt;" style="text;html=1;align=center;verticalAlign=middle;whiteSpace=wrap;rounded=0;strokeWidth=2;fontSize=14;" vertex="1" parent="1">
                    <mxGeometry x="205" y="370" width="140" height="30" as="geometry"/>
                </mxCell>
                <mxCell id="20" style="edgeStyle=none;html=1;entryX=0.25;entryY=1;entryDx=0;entryDy=0;dashed=1;fontSize=14;fontColor=#000000;endArrow=classic;endFill=1;" edge="1" parent="1" source="14" target="8">
                    <mxGeometry relative="1" as="geometry"/>
                </mxCell>
                <mxCell id="22" style="edgeStyle=none;html=1;dashed=1;fontSize=14;fontColor=#000000;endArrow=classic;endFill=1;exitX=0.125;exitY=-0.014;exitDx=0;exitDy=0;exitPerimeter=0;entryX=0.133;entryY=1.014;entryDx=0;entryDy=0;entryPerimeter=0;" edge="1" parent="1" source="14" target="10">
                    <mxGeometry relative="1" as="geometry">
                        <mxPoint x="280" y="490" as="targetPoint"/>
                    </mxGeometry>
                </mxCell>
                <mxCell id="14" value="" style="rounded=1;whiteSpace=wrap;html=1;strokeWidth=2;fontSize=14;fillColor=#66FF66;fontColor=#ffffff;strokeColor=#FFFFFF;" vertex="1" parent="1">
                    <mxGeometry x="200" y="640" width="600" height="120" as="geometry"/>
                </mxCell>
                <mxCell id="15" value="&lt;font color=&quot;#000000&quot;&gt;Camada de Infraestrutura&lt;/font&gt;" style="text;html=1;align=center;verticalAlign=middle;whiteSpace=wrap;rounded=0;strokeWidth=2;fontSize=14;" vertex="1" parent="1">
                    <mxGeometry x="205" y="650" width="180" height="30" as="geometry"/>
                </mxCell>
                <mxCell id="16" value="" style="rounded=1;whiteSpace=wrap;html=1;strokeWidth=2;fontSize=14;fillColor=#FF3399;fontColor=#ffffff;strokeColor=#FFFFFF;" vertex="1" parent="1">
                    <mxGeometry x="205" y="80" width="440" height="80" as="geometry"/>
                </mxCell>
                <mxCell id="17" value="&lt;font color=&quot;#000000&quot;&gt;Camada de Aplicação&lt;/font&gt;" style="text;html=1;align=center;verticalAlign=middle;whiteSpace=wrap;rounded=0;strokeWidth=2;fontSize=14;" vertex="1" parent="1">
                    <mxGeometry x="205" y="80" width="140" height="30" as="geometry"/>
                </mxCell>
                <mxCell id="23" value="Módulo/Subdomínio" style="shape=umlFrame;whiteSpace=wrap;html=1;strokeColor=#0000CC;strokeWidth=2;fontSize=14;fontColor=#000000;fillColor=#FF3399;gradientColor=none;dashed=1;width=140;height=30;" vertex="1" parent="1">
                    <mxGeometry x="520" y="320" width="240" height="480" as="geometry"/>
                </mxCell>
                <mxCell id="24" value="&lt;font color=&quot;#000000&quot;&gt;entity&lt;/font&gt;" style="text;html=1;strokeColor=#001DBC;fillColor=none;align=center;verticalAlign=middle;whiteSpace=wrap;rounded=0;dashed=1;strokeWidth=2;fontSize=14;fontColor=#ffffff;" vertex="1" parent="1">
                    <mxGeometry x="530" y="526" width="60" height="30" as="geometry"/>
                </mxCell>
                <mxCell id="25" value="&lt;font color=&quot;#000000&quot;&gt;exception&lt;/font&gt;" style="text;html=1;strokeColor=#001DBC;fillColor=none;align=center;verticalAlign=middle;whiteSpace=wrap;rounded=0;dashed=1;strokeWidth=2;fontSize=14;fontColor=#ffffff;" vertex="1" parent="1">
                    <mxGeometry x="610" y="526" width="60" height="30" as="geometry"/>
                </mxCell>
                <mxCell id="26" value="&lt;font color=&quot;#000000&quot;&gt;types&lt;/font&gt;" style="text;html=1;strokeColor=#001DBC;fillColor=none;align=center;verticalAlign=middle;whiteSpace=wrap;rounded=0;dashed=1;strokeWidth=2;fontSize=14;fontColor=#ffffff;" vertex="1" parent="1">
                    <mxGeometry x="530" y="563" width="60" height="30" as="geometry"/>
                </mxCell>
                <mxCell id="27" value="&lt;font color=&quot;#000000&quot;&gt;xpec&lt;/font&gt;" style="text;html=1;strokeColor=#001DBC;fillColor=none;align=center;verticalAlign=middle;whiteSpace=wrap;rounded=0;dashed=1;strokeWidth=2;fontSize=14;fontColor=#ffffff;" vertex="1" parent="1">
                    <mxGeometry x="610" y="563" width="60" height="30" as="geometry"/>
                </mxCell>
                <mxCell id="28" value="&lt;font color=&quot;#000000&quot;&gt;map&lt;/font&gt;" style="text;html=1;strokeColor=#001DBC;fillColor=none;align=center;verticalAlign=middle;whiteSpace=wrap;rounded=0;dashed=1;strokeWidth=2;fontSize=14;fontColor=#ffffff;" vertex="1" parent="1">
                    <mxGeometry x="530" y="650" width="60" height="30" as="geometry"/>
                </mxCell>
            </root>
        </mxGraphModel>
    </diagram>
</mxfile>